<svg width="32" height="32" viewBox="0 0 32 32" fill="none" xmlns="http://www.w3.org/2000/svg">
<g clip-path="url(#clip0_2_2124)">
<path d="M32 16C32 24.8367 24.8367 32 16 32C7.16333 32 0 24.8367 0 16C0 7.16333 7.16333 0 16 0C24.8367 0 32 7.16333 32 16Z" fill="url(#paint0_linear_2_2124)"/>
<path d="M19.3282 24H12.6718C10.0957 24 8 21.9043 8 19.3282V12.6718C8 10.0957 10.0957 8 12.6718 8H19.3282C21.9043 8 24 10.0957 24 12.6718V19.3282C24 21.9043 21.9043 24 19.3282 24ZM12.6718 9.35593C10.8434 9.35593 9.35593 10.8434 9.35593 12.6718V19.3282C9.35593 21.1566 10.8434 22.6441 12.6718 22.6441H19.3282C21.1566 22.6441 22.6441 21.1566 22.6441 19.3282V12.6718C22.6441 10.8434 21.1566 9.35593 19.3282 9.35593H12.6718Z" fill="white"/>
<path d="M16 20C13.7944 20 12 18.2056 12 16C12 13.7944 13.7944 12 16 12C18.2056 12 20 13.7944 20 16C20 18.2056 18.2056 20 16 20ZM16 13.25C14.4836 13.25 13.25 14.4836 13.25 16C13.25 17.5164 14.4836 18.75 16 18.75C17.5164 18.75 18.75 17.5164 18.75 16C18.75 14.4836 17.5164 13.25 16 13.25Z" fill="white"/>
<path d="M20 12.5C20 12.7761 19.7761 13 19.5 13C19.2239 13 19 12.7761 19 12.5C19 12.2239 19.2239 12 19.5 12C19.7761 12 20 12.2239 20 12.5Z" fill="white"/>
</g>
<defs>
<linearGradient id="paint0_linear_2_2124" x1="3" y1="30.5" x2="26.5" y2="4" gradientUnits="userSpaceOnUse">
<stop stop-color="#F9AE0E"/>
<stop offset="0.533217" stop-color="#C25283"/>
<stop offset="1" stop-color="#9507E1"/>
</linearGradient>
<clipPath id="clip0_2_2124">
<rect width="32" height="32" fill="white"/>
</clipPath>
</defs>
</svg>
