<svg width="32" height="32" viewBox="0 0 32 32" fill="none" xmlns="http://www.w3.org/2000/svg">
<g clip-path="url(#clip0_2_2118)">
<path d="M16 32C24.8366 32 32 24.8366 32 16C32 7.16344 24.8366 0 16 0C7.16344 0 0 7.16344 0 16C0 24.8366 7.16344 32 16 32Z" fill="#6AAF50"/>
<path d="M21.8489 18.7884C21.3369 18.441 20.6643 18.4427 20.1541 18.7928L19.4196 19.297C18.6015 19.8585 17.5135 19.828 16.7271 19.2228C15.986 18.6523 15.2786 18.0407 14.6069 17.3926C13.9587 16.7208 13.3471 16.0135 12.7767 15.2723C12.1714 14.486 12.141 13.398 12.7025 12.5798L13.2066 11.8453C13.5567 11.3352 13.5585 10.6626 13.2111 10.1506L11.1086 7.05216C10.5278 6.19628 9.39725 5.90953 8.48019 6.38797L8.47963 6.38822C6.62719 7.35472 5.85 9.58959 6.69875 11.4988C7.92044 14.2473 9.56081 16.7612 11.5405 18.9628L13.0367 20.459C15.2383 22.4386 17.7523 24.079 20.5006 25.3007C22.4099 26.1495 24.6448 25.3723 25.6113 23.5198L25.6115 23.5193C26.0899 22.6023 25.8033 21.4717 24.9473 20.8909L21.8489 18.7884Z" fill="white"/>
</g>
<defs>
<clipPath id="clip0_2_2118">
<rect width="32" height="32" fill="white"/>
</clipPath>
</defs>
</svg>
