<svg width="32" height="32" viewBox="0 0 32 32" fill="none" xmlns="http://www.w3.org/2000/svg">
<g clip-path="url(#clip0_2_2100)">
<path d="M16 32C24.8366 32 32 24.8366 32 16C32 7.16344 24.8366 0 16 0C7.16344 0 0 7.16344 0 16C0 24.8366 7.16344 32 16 32Z" fill="#B0E1FF"/>
<path d="M25.6629 18.0335C25.8089 17.3579 25.8864 16.6568 25.8864 15.9376C25.8864 10.4783 21.4607 6.05258 16.0014 6.05258C15.2821 6.05258 14.581 6.13014 13.9054 6.27601C13.1192 5.85376 12.2204 5.61401 11.2654 5.61401C8.17942 5.61401 5.67773 8.11576 5.67773 11.2017C5.67773 12.1566 5.91748 13.0555 6.33973 13.8417C6.1938 14.5173 6.1163 15.2184 6.1163 15.9376C6.1163 21.397 10.542 25.8226 16.0013 25.8226C16.7205 25.8226 17.4216 25.7451 18.0972 25.5992C18.8834 26.0215 19.7823 26.2612 20.7372 26.2612C23.8232 26.2612 26.3249 23.7595 26.3249 20.6735C26.3249 19.7185 26.0852 18.8197 25.6629 18.0335Z" fill="#41A0D7"/>
<path d="M19.1146 12.9063C18.6972 12.4905 17.2868 11.7674 16.0068 11.7674C15.0184 11.7674 14.1682 12.0808 14.1682 13.0691C14.1682 14.0991 15.383 14.3578 16.8041 14.7125C18.8739 15.2705 20.5139 15.8846 20.5139 18.1294C20.5139 18.7476 20.3972 19.2765 20.1641 19.7158C19.9306 20.1551 19.6162 20.5105 19.2203 20.7815C17.7431 21.7932 15.4007 21.7065 13.6637 21.172C12.8177 20.9117 12.0582 20.543 11.3857 20.0656L12.3783 18.1293C12.5946 18.3455 13.5983 19.0321 14.9654 19.3822C15.9886 19.6447 18.1219 19.7825 18.1219 18.3571C18.1219 17.5251 17.2339 17.165 16.3646 16.909C14.0954 16.2428 11.8576 15.8902 11.8576 13.427C11.8576 11.0646 13.7311 9.79858 16.0717 9.79858C16.8853 9.79858 17.6337 9.92621 18.3171 10.1809C19.0006 10.4358 19.5969 10.7369 20.107 11.0839L19.1146 12.9063Z" fill="white"/>
</g>
<defs>
<clipPath id="clip0_2_2100">
<rect width="32" height="32" fill="white"/>
</clipPath>
</defs>
</svg>
