<svg width="32" height="32" viewBox="0 0 32 32" fill="none" xmlns="http://www.w3.org/2000/svg">
<g clip-path="url(#clip0_2_2121)">
<path d="M16 32C24.8366 32 32 24.8366 32 16C32 7.16344 24.8366 0 16 0C7.16344 0 0 7.16344 0 16C0 24.8366 7.16344 32 16 32Z" fill="#039BE5"/>
<path d="M6.32168 14.6534L21.7484 8.70537C22.4644 8.4467 23.0897 8.88003 22.8577 9.9627L22.859 9.96137L20.2323 22.336C20.0377 23.2134 19.5163 23.4267 18.787 23.0134L14.787 20.0654L12.8577 21.924C12.6443 22.1374 12.4644 22.3174 12.051 22.3174L12.335 18.2467L19.7484 11.5494C20.071 11.2654 19.6763 11.1054 19.251 11.388L10.0897 17.156L6.14035 15.924C5.28302 15.652 5.26435 15.0667 6.32168 14.6534Z" fill="white"/>
</g>
<defs>
<clipPath id="clip0_2_2121">
<rect width="32" height="32" fill="white"/>
</clipPath>
</defs>
</svg>
