<svg width="22" height="22" viewBox="0 0 22 22" fill="none" xmlns="http://www.w3.org/2000/svg">
<path d="M0 20.6677V3.90988C0 2.13291 1.44568 0.687225 3.22266 0.687225H18.7773C20.5543 0.687225 22 2.13291 22 3.90988V14.2224C22 15.9994 20.5543 17.445 18.7773 17.445H4.77868L1.10026 21.1235C0.69575 21.5281 0 21.2415 0 20.6677Z" fill="#7EBCF9"/>
<path d="M11 7.13254C9.93382 7.13254 9.06641 7.99995 9.06641 9.06613C9.06641 10.1323 9.93382 10.9997 11 10.9997C12.0662 10.9997 12.9336 10.1323 12.9336 9.06613C12.9336 7.99995 12.0662 7.13254 11 7.13254ZM5.84375 7.13254C4.77757 7.13254 3.91016 7.99995 3.91016 9.06613C3.91016 10.1323 4.77757 10.9997 5.84375 10.9997C6.90993 10.9997 7.77734 10.1323 7.77734 9.06613C7.77734 7.99995 6.90993 7.13254 5.84375 7.13254ZM16.1562 7.13254C15.0901 7.13254 14.2227 7.99995 14.2227 9.06613C14.2227 10.1323 15.0901 10.9997 16.1562 10.9997C17.2224 10.9997 18.0898 10.1323 18.0898 9.06613C18.0898 7.99995 17.2224 7.13254 16.1562 7.13254Z" fill="white"/>
</svg>
