<svg width="25" height="18" viewBox="0 0 25 18" fill="none" xmlns="http://www.w3.org/2000/svg">
<path d="M12.4444 17.0209C5.70391 17.0209 0.358872 9.73488 0.136719 9.4244C-0.0455729 9.17089 -0.0455729 8.8291 0.136719 8.5756C0.358872 8.26517 5.70391 0.979187 12.4444 0.979187C19.1849 0.979187 24.53 8.26517 24.7522 8.57565C24.9345 8.82915 24.9345 9.17094 24.7522 9.42444C24.53 9.73487 19.1849 17.0209 12.4444 17.0209Z" fill="#30267E"/>
<path d="M12.444 14.1042C9.62986 14.1042 7.33984 11.8142 7.33984 9.00001C7.33984 6.18586 9.62986 3.89584 12.444 3.89584C15.2582 3.89584 17.5482 6.18586 17.5482 9.00001C17.5482 11.8142 15.2582 14.1042 12.444 14.1042Z" fill="white"/>
<path d="M12.4453 11.1875C11.2391 11.1875 10.2578 10.2063 10.2578 9.00003C10.2578 7.79379 11.2391 6.81253 12.4453 6.81253C13.6515 6.81253 14.6328 7.79379 14.6328 9.00003C14.6328 10.2063 13.6515 11.1875 12.4453 11.1875Z" fill="#30267E"/>
</svg>
