<svg width="22" height="18" viewBox="0 0 22 18" fill="none" xmlns="http://www.w3.org/2000/svg">
<path d="M10.9511 16.4983C5.01944 16.4983 0.315807 10.0867 0.120313 9.81344C-0.0401042 9.59035 -0.0401042 9.28958 0.120313 9.06649C0.315807 8.79331 5.01944 2.38165 10.9511 2.38165C16.8827 2.38165 21.5864 8.79332 21.7819 9.06654C21.9423 9.28962 21.9423 9.59039 21.7819 9.81348C21.5864 10.0867 16.8827 16.4983 10.9511 16.4983Z" fill="#B5B5B5"/>
<path d="M10.9526 13.9317C8.47616 13.9317 6.46094 11.9165 6.46094 9.44C6.46094 6.96355 8.47616 4.94833 10.9526 4.94833C13.4291 4.94833 15.4443 6.96355 15.4443 9.44C15.4443 11.9165 13.4291 13.9317 10.9526 13.9317Z" fill="white"/>
<path d="M10.9523 11.365C9.89086 11.365 9.02734 10.5015 9.02734 9.44001C9.02734 8.37853 9.89086 7.51501 10.9523 7.51501C12.0138 7.51501 12.8773 8.37853 12.8773 9.44001C12.8773 10.5015 12.0138 11.365 10.9523 11.365Z" fill="#B5B5B5"/>
<path d="M4 2L18 16" stroke="#F8F8F8" stroke-width="4" stroke-linecap="round"/>
<path d="M4 2L18 16" stroke="#B5B5B5" stroke-width="2" stroke-linecap="round"/>
</svg>
