<svg width="26" height="32" viewBox="0 0 26 32" fill="none" xmlns="http://www.w3.org/2000/svg">
<path d="M5.2076 8.6923C5.2076 11.2133 6.41128 13.4579 8.2732 14.8828C3.55261 16.7667 0.207617 21.384 0.207617 26.7692C0.207617 29.1573 2.1503 31.1 4.53838 31.1H21.4614C23.8495 31.1 25.7922 29.1573 25.7922 26.7692C25.7922 21.384 22.4472 16.7667 17.7266 14.8828C19.5885 13.4579 20.7922 11.2133 20.7922 8.6923C20.7922 4.39553 17.2967 0.9 12.9999 0.9C8.70313 0.9 5.2076 4.39553 5.2076 8.6923ZM7.71531 8.6923C7.71531 5.77847 10.0861 3.40771 12.9999 3.40771C15.9137 3.40771 18.2845 5.77847 18.2845 8.6923C18.2845 11.6061 15.9137 13.977 12.9999 13.977C10.0861 13.977 7.71531 11.6061 7.71531 8.6923ZM4.53838 28.5923C3.53324 28.5923 2.71533 27.7744 2.71533 26.7692C2.71533 21.0983 7.329 16.4846 13 16.4846C18.6709 16.4846 23.2846 21.0982 23.2846 26.7692C23.2845 27.7744 22.4666 28.5923 21.4614 28.5923H4.53838Z" fill="#3A0CA3" stroke="#3A0CA3" stroke-width="0.2"/>
</svg>
