<svg width="22" height="22" viewBox="0 0 22 22" fill="none" xmlns="http://www.w3.org/2000/svg">
<g clip-path="url(#clip0_263_4480)">
<path d="M1.91296 3.33212C0.856656 3.33212 0 4.18873 0 5.2458C0 6.30211 0.856656 7.158 1.91296 7.158C2.96927 7.158 3.82592 6.30211 3.82592 5.2458C3.82592 4.18873 2.96927 3.33212 1.91296 3.33212Z" fill="#B388FF"/>
<path d="M1.91296 9.08743C0.856656 9.08743 0 9.94333 0 11.0004C0 12.0567 0.856656 12.9133 1.91296 12.9133C2.96927 12.9133 3.82592 12.0567 3.82592 11.0004C3.82592 9.94333 2.96927 9.08743 1.91296 9.08743Z" fill="#B388FF"/>
<path d="M1.91296 14.842C0.856656 14.842 0 15.6987 0 16.755C0 17.8113 0.856656 18.6679 1.91296 18.6679C2.96927 18.6679 3.82592 17.8113 3.82592 16.755C3.82592 15.6987 2.96927 14.842 1.91296 14.842Z" fill="#B388FF"/>
<path d="M20.5616 3.80661H6.95411C6.15977 3.80661 5.51562 4.45075 5.51562 5.24582C5.51562 6.04021 6.15972 6.6843 6.95411 6.6843H20.5616C21.3559 6.6843 22.0001 6.04021 22.0001 5.24582C22.0001 4.45075 21.3559 3.80661 20.5616 3.80661Z" fill="#B388FF"/>
<path d="M20.5616 9.56122H6.95411C6.15977 9.56122 5.51562 10.2053 5.51562 11.0004C5.51562 11.7948 6.15972 12.4389 6.95411 12.4389H20.5616C21.3559 12.4389 22.0001 11.7948 22.0001 11.0004C22.0001 10.2053 21.3559 9.56122 20.5616 9.56122Z" fill="#B388FF"/>
<path d="M20.5616 15.3166H6.95411C6.15977 15.3166 5.51562 15.9607 5.51562 16.755C5.51562 17.5494 6.15972 18.1935 6.95411 18.1935H20.5616C21.3559 18.1935 22.0001 17.5494 22.0001 16.755C22.0001 15.9606 21.3559 15.3166 20.5616 15.3166Z" fill="#B388FF"/>
</g>
<defs>
<clipPath id="clip0_263_4480">
<rect width="22" height="22" fill="white"/>
</clipPath>
</defs>
</svg>
