<svg width="20" height="20" viewBox="0 0 20 20" fill="none" xmlns="http://www.w3.org/2000/svg">
<path d="M19.7556 18.5774L14.0682 12.89C15.1699 11.5292 15.8332 9.80001 15.8332 7.9167C15.8332 3.55174 12.2815 9.15527e-05 7.91656 9.15527e-05C3.55161 9.15527e-05 0 3.5517 0 7.91666C0 12.2816 3.55165 15.8333 7.9166 15.8333C9.7999 15.8333 11.5291 15.17 12.8899 14.0683L18.5773 19.7557C18.7398 19.9182 18.9531 19.9999 19.1665 19.9999C19.3798 19.9999 19.5932 19.9182 19.7557 19.7557C20.0815 19.4299 20.0815 18.9032 19.7556 18.5774ZM7.9166 14.1666C4.46996 14.1666 1.66666 11.3633 1.66666 7.91666C1.66666 4.47001 4.46996 1.66672 7.9166 1.66672C11.3632 1.66672 14.1665 4.47001 14.1665 7.91666C14.1665 11.3633 11.3632 14.1666 7.9166 14.1666Z" fill="#3A0CA3"/>
</svg>
