<svg width="25" height="25" viewBox="0 0 25 25" fill="none" xmlns="http://www.w3.org/2000/svg">
<path d="M16.6733 6.81674C16.6733 8.14044 16.1986 9.28622 15.2622 10.2228C14.3257 11.1592 13.1798 11.6339 11.8561 11.6339H11.8538C10.5318 11.6335 9.38663 11.1588 8.4502 10.2228C7.51361 9.28622 7.03906 8.14044 7.03906 6.81674C7.03906 5.4935 7.51361 4.34756 8.4502 3.41113C9.38617 2.47501 10.5313 2.00046 11.8538 2H11.8561C13.1794 2 14.3253 2.4747 15.2622 3.41113C16.1986 4.34756 16.6733 5.4935 16.6733 6.81674Z" fill="#FFBB85"/>
<path d="M20.3269 18.5604C20.3269 19.6047 19.9947 20.4502 19.3404 21.0729C18.6937 21.6883 17.8385 22 16.7986 22H7.16846C6.12857 22 5.27332 21.6883 4.62711 21.0729C3.97235 20.4497 3.64062 19.6044 3.64062 18.5604C3.64062 18.1588 3.6539 17.7614 3.68045 17.3793C3.70746 16.9887 3.76208 16.5636 3.84265 16.1151C3.92383 15.663 4.0282 15.2356 4.15317 14.845C4.28287 14.4406 4.45834 14.0418 4.67548 13.6597C4.901 13.2631 5.16589 12.9177 5.46283 12.6332C5.77411 12.3355 6.15466 12.0964 6.59457 11.9222C7.03296 11.7488 7.51895 11.6609 8.03897 11.6609C8.24298 11.6609 8.44058 11.7444 8.82144 11.9925C9.05978 12.148 9.33444 12.325 9.63763 12.5188C9.89948 12.6857 10.2541 12.8423 10.6925 12.9837C11.0778 13.1084 11.4688 13.178 11.8552 13.19C11.8978 13.1916 11.9403 13.1923 11.9829 13.1923C12.412 13.1923 12.8459 13.122 13.2738 12.9837C13.7122 12.8423 14.0673 12.6857 14.3289 12.5188C14.6353 12.323 14.91 12.1462 15.1448 11.993C15.526 11.7444 15.7233 11.6609 15.9278 11.6609C16.4473 11.6609 16.9333 11.7488 17.372 11.9222C17.8119 12.0964 18.1925 12.336 18.5034 12.6332C18.8008 12.9177 19.0657 13.2631 19.2911 13.6597C19.5084 14.0421 19.6842 14.4406 19.8134 14.8445C19.9385 15.2356 20.0432 15.663 20.1244 16.1154C20.2045 16.5644 20.2593 16.9895 20.2861 17.379C20.3131 17.7599 20.3264 18.1572 20.3269 18.5604Z" fill="#B388FF"/>
</svg>
