<svg width="12" height="12" viewBox="0 0 12 12" fill="none" xmlns="http://www.w3.org/2000/svg">
<g clip-path="url(#clip0_29_1313)">
<path d="M0.95 6C0.95 8.78457 3.21543 11.05 6 11.05C8.78457 11.05 11.05 8.78457 11.05 6C11.05 3.21543 8.78457 0.95 6 0.95C3.21543 0.95 0.95 3.21543 0.95 6ZM1.675 6C1.675 3.6152 3.6152 1.675 6 1.675C8.3848 1.675 10.325 3.6152 10.325 6C10.325 8.3848 8.3848 10.325 6 10.325C3.6152 10.325 1.675 8.3848 1.675 6Z" fill="#B5B5B5" stroke="#B5B5B5" stroke-width="0.1"/>
<path d="M7.82117 4.28678L7.85693 4.2518L7.82193 4.21605C7.33829 3.72215 6.69125 3.45 6.00001 3.45C4.5939 3.45 3.45 4.5939 3.45 6.00001C3.45 7.40612 4.59392 8.55002 6.00001 8.55002C6.69094 8.55 7.33796 8.27818 7.82132 7.78455L7.85628 7.74886L7.82061 7.71388L7.37445 7.27624L7.33874 7.24121L7.30372 7.27695C6.95729 7.63052 6.49469 7.825 6.00001 7.825C4.99368 7.825 4.175 7.00632 4.175 5.99999C4.175 4.99366 4.99368 4.17498 6.00001 4.17498C6.49501 4.17498 6.9576 4.36946 7.30371 4.72302L7.33867 4.75873L7.3744 4.72378L7.82117 4.28678Z" fill="#B5B5B5" stroke="#B5B5B5" stroke-width="0.1"/>
</g>
<defs>
<clipPath id="clip0_29_1313">
<rect width="12" height="12" fill="white"/>
</clipPath>
</defs>
</svg>
