<svg width="45" height="45" viewBox="0 0 45 45" fill="none" xmlns="http://www.w3.org/2000/svg">
<circle cx="22.5" cy="22.5" r="22.5" fill="#2F75EC"/>
<g clip-path="url(#clip0_25_411)">
<path d="M29.7319 15.2679H15.2676V29.7322H29.7319V15.2679Z" fill="#ECEFF1"/>
<path d="M22.5 24.0216L29.7321 29.7326V18.4577L22.5 24.0216Z" fill="#CFD8DC"/>
<path d="M30.3346 15.2679H29.7319L22.4998 20.9789L15.2676 15.2679H14.665C13.6669 15.2679 12.8569 16.0779 12.8569 17.0759V27.9241C12.8569 28.9222 13.6669 29.7322 14.665 29.7322H15.2676V18.4573L22.4998 24.02L29.7319 18.4561V29.7322H30.3346C31.3326 29.7322 32.1426 28.9222 32.1426 27.9241V17.0759C32.1426 16.0779 31.3326 15.2679 30.3346 15.2679Z" fill="#F44336"/>
</g>
<defs>
<clipPath id="clip0_25_411">
<rect width="19.2857" height="16.7143" fill="white" transform="translate(12.8569 14.1429)"/>
</clipPath>
</defs>
</svg>
