<svg width="223" height="50" viewBox="0 0 223 50" fill="none" xmlns="http://www.w3.org/2000/svg">
<path d="M0.672 40.24C0.672 39.5467 0.789333 38.8693 1.024 38.208C1.26933 37.536 1.62133 36.928 2.08 36.384C2.53867 35.8293 3.104 35.392 3.776 35.072C4.448 34.7413 5.21067 34.576 6.064 34.576C7.07733 34.576 7.94133 34.8107 8.656 35.28C9.38133 35.7387 9.91467 36.3307 10.256 37.056L9.376 37.6C9.13067 37.0987 8.82133 36.704 8.448 36.416C8.07467 36.1173 7.67467 35.904 7.248 35.776C6.832 35.648 6.416 35.584 6 35.584C5.31733 35.584 4.71467 35.7227 4.192 36C3.66933 36.2667 3.22667 36.6293 2.864 37.088C2.512 37.536 2.24533 38.0427 2.064 38.608C1.88267 39.1627 1.792 39.728 1.792 40.304C1.792 40.9333 1.89867 41.536 2.112 42.112C2.32533 42.688 2.624 43.2 3.008 43.648C3.392 44.0853 3.84 44.4373 4.352 44.704C4.87467 44.96 5.44 45.088 6.048 45.088C6.47467 45.088 6.912 45.0133 7.36 44.864C7.808 44.7147 8.224 44.4853 8.608 44.176C9.00267 43.8667 9.31733 43.4667 9.552 42.976L10.48 43.456C10.2453 44.0213 9.88267 44.5013 9.392 44.896C8.90133 45.2907 8.352 45.5893 7.744 45.792C7.14667 45.9947 6.56 46.096 5.984 46.096C5.20533 46.096 4.49067 45.9307 3.84 45.6C3.18933 45.2587 2.624 44.8107 2.144 44.256C1.67467 43.6907 1.312 43.0613 1.056 42.368C0.8 41.664 0.672 40.9547 0.672 40.24ZM15.8008 46.16C15.2034 46.16 14.6488 46.048 14.1367 45.824C13.6354 45.5893 13.1981 45.2747 12.8248 44.88C12.4621 44.4747 12.1794 44.016 11.9767 43.504C11.7741 42.9813 11.6727 42.432 11.6727 41.856C11.6727 41.2587 11.7741 40.704 11.9767 40.192C12.1794 39.6693 12.4674 39.2107 12.8407 38.816C13.2141 38.4107 13.6514 38.096 14.1528 37.872C14.6648 37.6373 15.2194 37.52 15.8168 37.52C16.4141 37.52 16.9634 37.6373 17.4648 37.872C17.9661 38.096 18.4034 38.4107 18.7768 38.816C19.1501 39.2107 19.4381 39.6693 19.6407 40.192C19.8434 40.704 19.9448 41.2587 19.9448 41.856C19.9448 42.432 19.8434 42.9813 19.6407 43.504C19.4381 44.016 19.1501 44.4747 18.7768 44.88C18.4141 45.2747 17.9768 45.5893 17.4648 45.824C16.9634 46.048 16.4088 46.16 15.8008 46.16ZM12.7767 41.872C12.7767 42.4907 12.9101 43.056 13.1767 43.568C13.4541 44.0693 13.8221 44.4693 14.2808 44.768C14.7394 45.056 15.2461 45.2 15.8008 45.2C16.3554 45.2 16.8621 45.0507 17.3208 44.752C17.7794 44.4533 18.1474 44.048 18.4248 43.536C18.7021 43.0133 18.8408 42.448 18.8408 41.84C18.8408 41.2213 18.7021 40.656 18.4248 40.144C18.1474 39.632 17.7794 39.2267 17.3208 38.928C16.8621 38.6293 16.3554 38.48 15.8008 38.48C15.2461 38.48 14.7394 38.6347 14.2808 38.944C13.8328 39.2533 13.4701 39.664 13.1927 40.176C12.9154 40.6773 12.7767 41.2427 12.7767 41.872ZM25.3964 46.16C24.799 46.16 24.2444 46.048 23.7324 45.824C23.231 45.5893 22.7937 45.2747 22.4204 44.88C22.0577 44.4747 21.775 44.016 21.5724 43.504C21.3697 42.9813 21.2684 42.432 21.2684 41.856C21.2684 41.2587 21.3697 40.704 21.5724 40.192C21.775 39.6693 22.063 39.2107 22.4364 38.816C22.8097 38.4107 23.247 38.096 23.7484 37.872C24.2604 37.6373 24.815 37.52 25.4124 37.52C26.0097 37.52 26.559 37.6373 27.0604 37.872C27.5617 38.096 27.999 38.4107 28.3724 38.816C28.7457 39.2107 29.0337 39.6693 29.2364 40.192C29.439 40.704 29.5404 41.2587 29.5404 41.856C29.5404 42.432 29.439 42.9813 29.2364 43.504C29.0337 44.016 28.7457 44.4747 28.3724 44.88C28.0097 45.2747 27.5724 45.5893 27.0604 45.824C26.559 46.048 26.0044 46.16 25.3964 46.16ZM22.3724 41.872C22.3724 42.4907 22.5057 43.056 22.7724 43.568C23.0497 44.0693 23.4177 44.4693 23.8764 44.768C24.335 45.056 24.8417 45.2 25.3964 45.2C25.951 45.2 26.4577 45.0507 26.9164 44.752C27.375 44.4533 27.743 44.048 28.0204 43.536C28.2977 43.0133 28.4364 42.448 28.4364 41.84C28.4364 41.2213 28.2977 40.656 28.0204 40.144C27.743 39.632 27.375 39.2267 26.9164 38.928C26.4577 38.6293 25.951 38.48 25.3964 38.48C24.8417 38.48 24.335 38.6347 23.8764 38.944C23.4284 39.2533 23.0657 39.664 22.7884 40.176C22.511 40.6773 22.3724 41.2427 22.3724 41.872ZM35.264 46.16C33.92 46.16 32.9013 45.7493 32.208 44.928C31.5253 44.096 31.184 42.9493 31.184 41.488C31.184 40.4533 31.2693 39.5787 31.44 38.864C31.6107 38.1493 31.8613 37.5627 32.192 37.104C32.5227 36.6347 32.928 36.2507 33.408 35.952C33.8987 35.6533 34.4587 35.408 35.088 35.216L38.592 34.064L38.688 35.008L35.312 36.112C34.672 36.3253 34.1387 36.5973 33.712 36.928C33.2853 37.2587 32.9493 37.68 32.704 38.192C32.4693 38.6933 32.3147 39.3493 32.24 40.16C32.5173 39.5413 32.944 39.0667 33.52 38.736C34.096 38.3947 34.7627 38.224 35.52 38.224C36.3307 38.224 37.0187 38.3893 37.584 38.72C38.16 39.0507 38.5973 39.5093 38.896 40.096C39.1947 40.6827 39.344 41.36 39.344 42.128C39.344 42.9387 39.184 43.648 38.864 44.256C38.5547 44.8533 38.096 45.3227 37.488 45.664C36.8907 45.9947 36.1493 46.16 35.264 46.16ZM35.264 45.2C36.2133 45.2 36.944 44.928 37.456 44.384C37.9787 43.8293 38.24 43.0933 38.24 42.176C38.24 41.28 37.984 40.5493 37.472 39.984C36.9707 39.4187 36.2347 39.136 35.264 39.136C34.7093 39.136 34.208 39.2533 33.76 39.488C33.312 39.7227 32.9547 40.064 32.688 40.512C32.432 40.96 32.304 41.5147 32.304 42.176C32.304 42.752 32.416 43.2693 32.64 43.728C32.8747 44.1867 33.2107 44.5493 33.648 44.816C34.0853 45.072 34.624 45.2 35.264 45.2ZM51.7984 47.936V46H41.2384V37.664H42.3264V45.024H45.8944V37.664H46.9984V45.024H50.5504V37.664H51.6384V45.024H52.7744V47.936H51.7984ZM58.1063 46.16C57.5089 46.16 56.9543 46.048 56.4423 45.824C55.9303 45.5893 55.4876 45.2747 55.1143 44.88C54.7409 44.4747 54.4476 44.0107 54.2343 43.488C54.0316 42.9653 53.9303 42.4053 53.9303 41.808C53.9303 41.0293 54.1063 40.3147 54.4583 39.664C54.8209 39.0133 55.3169 38.496 55.9463 38.112C56.5756 37.7173 57.2903 37.52 58.0903 37.52C58.9116 37.52 59.6263 37.7173 60.2343 38.112C60.8529 38.5067 61.3383 39.0293 61.6903 39.68C62.0423 40.32 62.2183 41.024 62.2183 41.792C62.2183 41.8773 62.2183 41.9627 62.2183 42.048C62.2183 42.1227 62.2129 42.1813 62.2023 42.224H55.0663C55.1196 42.8213 55.2849 43.3547 55.5623 43.824C55.8503 44.2827 56.2183 44.6507 56.6663 44.928C57.1249 45.1947 57.6209 45.328 58.1543 45.328C58.6983 45.328 59.2103 45.1893 59.6903 44.912C60.1809 44.6347 60.5223 44.272 60.7143 43.824L61.6583 44.08C61.4876 44.4747 61.2263 44.832 60.8743 45.152C60.5223 45.472 60.1063 45.7227 59.6263 45.904C59.1569 46.0747 58.6503 46.16 58.1063 46.16ZM55.0343 41.44H61.1943C61.1516 40.832 60.9863 40.2987 60.6983 39.84C60.4209 39.3813 60.0529 39.024 59.5943 38.768C59.1463 38.5013 58.6503 38.368 58.1063 38.368C57.5623 38.368 57.0663 38.5013 56.6183 38.768C56.1703 39.024 55.8023 39.3867 55.5143 39.856C55.2369 40.3147 55.0769 40.8427 55.0343 41.44ZM67.5929 46.16C66.9849 46.16 66.4249 46.048 65.9129 45.824C65.4115 45.5893 64.9689 45.2693 64.5849 44.864C64.2115 44.4587 63.9182 43.9947 63.7049 43.472C63.5022 42.9493 63.4009 42.3947 63.4009 41.808C63.4009 41.0187 63.5769 40.2987 63.9289 39.648C64.2809 38.9973 64.7715 38.48 65.4009 38.096C66.0302 37.712 66.7555 37.52 67.5769 37.52C68.3555 37.52 69.0435 37.7013 69.6409 38.064C70.2382 38.416 70.6809 38.896 70.9689 39.504L69.9129 39.84C69.6782 39.4133 69.3475 39.0827 68.9209 38.848C68.5049 38.6027 68.0409 38.48 67.5289 38.48C66.9742 38.48 66.4675 38.624 66.0089 38.912C65.5502 39.2 65.1822 39.5947 64.9049 40.096C64.6382 40.5973 64.5049 41.168 64.5049 41.808C64.5049 42.4373 64.6435 43.008 64.9209 43.52C65.1982 44.032 65.5662 44.4427 66.0249 44.752C66.4835 45.0507 66.9902 45.2 67.5449 45.2C67.9075 45.2 68.2542 45.136 68.5849 45.008C68.9262 44.88 69.2195 44.7093 69.4649 44.496C69.7209 44.272 69.8915 44.032 69.9769 43.776L71.0489 44.096C70.8995 44.4907 70.6489 44.848 70.2969 45.168C69.9555 45.4773 69.5502 45.7227 69.0809 45.904C68.6222 46.0747 68.1262 46.16 67.5929 46.16ZM74.9181 46V38.64H71.9421V37.664H78.9821V38.64H76.0061V46H74.9181ZM80.5271 46V37.664H84.6871C85.1565 37.664 85.5511 37.7653 85.8711 37.968C86.1911 38.16 86.4311 38.4107 86.5911 38.72C86.7618 39.0293 86.8471 39.36 86.8471 39.712C86.8471 40.16 86.7405 40.5653 86.5271 40.928C86.3138 41.28 86.0045 41.5467 85.5991 41.728C86.0791 41.8667 86.4685 42.1173 86.7671 42.48C87.0658 42.8427 87.2151 43.28 87.2151 43.792C87.2151 44.24 87.1031 44.6293 86.8791 44.96C86.6658 45.2907 86.3671 45.5467 85.9831 45.728C85.6098 45.9093 85.1778 46 84.6871 46H80.5271ZM81.5671 45.216H84.6551C84.9325 45.216 85.1831 45.1467 85.4071 45.008C85.6418 44.8587 85.8231 44.6667 85.9511 44.432C86.0898 44.1973 86.1591 43.952 86.1591 43.696C86.1591 43.4187 86.0951 43.168 85.9671 42.944C85.8391 42.7093 85.6685 42.5227 85.4551 42.384C85.2418 42.2453 84.9965 42.176 84.7191 42.176H81.5671V45.216ZM81.5671 41.424H84.3991C84.6765 41.424 84.9218 41.3493 85.1351 41.2C85.3485 41.0507 85.5138 40.8587 85.6311 40.624C85.7485 40.3893 85.8071 40.144 85.8071 39.888C85.8071 39.504 85.6791 39.168 85.4231 38.88C85.1778 38.592 84.8578 38.448 84.4631 38.448H81.5671V41.424ZM92.7376 46.16C92.1403 46.16 91.5856 46.048 91.0736 45.824C90.5723 45.5893 90.135 45.2747 89.7616 44.88C89.399 44.4747 89.1163 44.016 88.9136 43.504C88.711 42.9813 88.6096 42.432 88.6096 41.856C88.6096 41.2587 88.711 40.704 88.9136 40.192C89.1163 39.6693 89.4043 39.2107 89.7776 38.816C90.151 38.4107 90.5883 38.096 91.0896 37.872C91.6016 37.6373 92.1563 37.52 92.7536 37.52C93.351 37.52 93.9003 37.6373 94.4016 37.872C94.903 38.096 95.3403 38.4107 95.7136 38.816C96.087 39.2107 96.375 39.6693 96.5776 40.192C96.7803 40.704 96.8816 41.2587 96.8816 41.856C96.8816 42.432 96.7803 42.9813 96.5776 43.504C96.375 44.016 96.087 44.4747 95.7136 44.88C95.351 45.2747 94.9136 45.5893 94.4016 45.824C93.9003 46.048 93.3456 46.16 92.7376 46.16ZM89.7136 41.872C89.7136 42.4907 89.847 43.056 90.1136 43.568C90.391 44.0693 90.759 44.4693 91.2176 44.768C91.6763 45.056 92.183 45.2 92.7376 45.2C93.2923 45.2 93.799 45.0507 94.2576 44.752C94.7163 44.4533 95.0843 44.048 95.3616 43.536C95.639 43.0133 95.7776 42.448 95.7776 41.84C95.7776 41.2213 95.639 40.656 95.3616 40.144C95.0843 39.632 94.7163 39.2267 94.2576 38.928C93.799 38.6293 93.2923 38.48 92.7376 38.48C92.183 38.48 91.6763 38.6347 91.2176 38.944C90.7696 39.2533 90.407 39.664 90.1296 40.176C89.8523 40.6773 89.7136 41.2427 89.7136 41.872ZM106.873 34.72H107.929L109.529 38.752L111.145 34.72H112.217L110.233 39.568L112.409 44.704L116.521 34.64H117.737L112.921 46H111.929L109.545 40.384L107.145 46H106.169L101.369 34.64H102.569L106.697 44.704L108.857 39.568L106.873 34.72ZM121.713 46.16C121.116 46.16 120.561 46.048 120.049 45.824C119.537 45.5893 119.094 45.2747 118.721 44.88C118.348 44.4747 118.054 44.0107 117.841 43.488C117.638 42.9653 117.537 42.4053 117.537 41.808C117.537 41.0293 117.713 40.3147 118.065 39.664C118.428 39.0133 118.924 38.496 119.553 38.112C120.182 37.7173 120.897 37.52 121.697 37.52C122.518 37.52 123.233 37.7173 123.841 38.112C124.46 38.5067 124.945 39.0293 125.297 39.68C125.649 40.32 125.825 41.024 125.825 41.792C125.825 41.8773 125.825 41.9627 125.825 42.048C125.825 42.1227 125.82 42.1813 125.809 42.224H118.673C118.726 42.8213 118.892 43.3547 119.169 43.824C119.457 44.2827 119.825 44.6507 120.273 44.928C120.732 45.1947 121.228 45.328 121.761 45.328C122.305 45.328 122.817 45.1893 123.297 44.912C123.788 44.6347 124.129 44.272 124.321 43.824L125.265 44.08C125.094 44.4747 124.833 44.832 124.481 45.152C124.129 45.472 123.713 45.7227 123.233 45.904C122.764 46.0747 122.257 46.16 121.713 46.16ZM118.641 41.44H124.801C124.758 40.832 124.593 40.2987 124.305 39.84C124.028 39.3813 123.66 39.024 123.201 38.768C122.753 38.5013 122.257 38.368 121.713 38.368C121.169 38.368 120.673 38.5013 120.225 38.768C119.777 39.024 119.409 39.3867 119.121 39.856C118.844 40.3147 118.684 40.8427 118.641 41.44ZM131.664 46.16C131.013 46.16 130.41 45.9947 129.856 45.664C129.301 45.3227 128.869 44.896 128.56 44.384V46H127.584V34.32H128.672V39.408C129.045 38.8427 129.493 38.3893 130.016 38.048C130.538 37.696 131.146 37.52 131.84 37.52C132.426 37.52 132.949 37.6427 133.408 37.888C133.877 38.1333 134.277 38.464 134.608 38.88C134.938 39.2853 135.189 39.7493 135.36 40.272C135.53 40.784 135.616 41.312 135.616 41.856C135.616 42.4427 135.514 42.992 135.312 43.504C135.12 44.016 134.842 44.4747 134.48 44.88C134.117 45.2747 133.696 45.5893 133.216 45.824C132.746 46.048 132.229 46.16 131.664 46.16ZM131.408 45.2C131.856 45.2 132.272 45.1093 132.656 44.928C133.04 44.7467 133.37 44.496 133.648 44.176C133.925 43.856 134.138 43.4987 134.288 43.104C134.437 42.6987 134.512 42.2827 134.512 41.856C134.512 41.2693 134.384 40.72 134.128 40.208C133.882 39.6853 133.536 39.2693 133.088 38.96C132.65 38.64 132.133 38.48 131.536 38.48C131.109 38.48 130.709 38.576 130.336 38.768C129.973 38.96 129.648 39.216 129.36 39.536C129.082 39.8453 128.853 40.1867 128.672 40.56V43.152C128.714 43.44 128.826 43.712 129.008 43.968C129.189 44.2133 129.413 44.4267 129.68 44.608C129.957 44.7893 130.245 44.9333 130.544 45.04C130.842 45.1467 131.13 45.2 131.408 45.2ZM140.769 47.936V45.024H140.913C141.158 45.024 141.382 44.9493 141.585 44.8C141.788 44.6507 141.969 44.3893 142.129 44.016C142.289 43.6427 142.417 43.1307 142.513 42.48C142.609 41.8187 142.673 40.9867 142.705 39.984L142.785 37.664H148.209V45.024H149.329V47.936H148.353V46H141.729V47.936H140.769ZM142.561 45.024H147.121V38.64H143.761L143.713 40.08C143.681 41.072 143.612 41.904 143.505 42.576C143.409 43.2373 143.281 43.7653 143.121 44.16C142.972 44.544 142.785 44.832 142.561 45.024ZM151.042 46V37.68H152.13V44.528L157.202 37.664H158.178V46H157.09V39.264L152.098 46H151.042ZM163.054 46.096C162.286 46.096 161.63 45.952 161.086 45.664C160.542 45.3653 160.126 44.9493 159.838 44.416L160.734 44.016C160.937 44.3893 161.23 44.6827 161.614 44.896C161.998 45.0987 162.462 45.2 163.006 45.2C163.657 45.2 164.174 45.0507 164.558 44.752C164.953 44.4533 165.15 44.0533 165.15 43.552C165.15 43.0933 164.995 42.7253 164.686 42.448C164.377 42.1707 163.95 42.0267 163.406 42.016H162.558V41.264H163.47C163.705 41.264 163.918 41.2 164.11 41.072C164.302 40.944 164.451 40.7733 164.558 40.56C164.665 40.3467 164.718 40.1067 164.718 39.84C164.718 39.424 164.569 39.088 164.27 38.832C163.982 38.576 163.555 38.448 162.99 38.448C162.521 38.448 162.126 38.544 161.806 38.736C161.497 38.9173 161.246 39.1893 161.054 39.552L160.222 39.104C160.467 38.6133 160.83 38.2293 161.31 37.952C161.801 37.6747 162.371 37.536 163.022 37.536C163.555 37.536 164.019 37.6267 164.414 37.808C164.819 37.9787 165.134 38.2293 165.358 38.56C165.593 38.88 165.71 39.2693 165.71 39.728C165.71 40.1227 165.614 40.4907 165.422 40.832C165.23 41.1627 164.963 41.4133 164.622 41.584C165.113 41.7333 165.491 41.9947 165.758 42.368C166.035 42.7413 166.174 43.1787 166.174 43.68C166.174 44.1813 166.041 44.6133 165.774 44.976C165.507 45.3387 165.139 45.616 164.67 45.808C164.201 46 163.662 46.096 163.054 46.096ZM167.406 43.6C167.406 43.0773 167.555 42.6293 167.854 42.256C168.152 41.872 168.563 41.5787 169.086 41.376C169.619 41.1627 170.232 41.056 170.926 41.056C171.331 41.056 171.752 41.088 172.19 41.152C172.627 41.216 173.016 41.312 173.358 41.44V40.736C173.358 40.032 173.15 39.472 172.734 39.056C172.318 38.64 171.742 38.432 171.006 38.432C170.558 38.432 170.115 38.5173 169.678 38.688C169.251 38.848 168.803 39.088 168.334 39.408L167.918 38.64C168.462 38.2667 168.995 37.9893 169.518 37.808C170.04 37.616 170.574 37.52 171.118 37.52C172.142 37.52 172.952 37.8133 173.55 38.4C174.147 38.9867 174.446 39.7973 174.446 40.832V44.688C174.446 44.8373 174.478 44.9493 174.542 45.024C174.606 45.088 174.707 45.1253 174.846 45.136V46C174.728 46.0107 174.627 46.0213 174.542 46.032C174.456 46.0427 174.392 46.0427 174.35 46.032C174.083 46.0213 173.88 45.936 173.742 45.776C173.603 45.616 173.528 45.4453 173.518 45.264L173.502 44.656C173.128 45.136 172.643 45.5093 172.046 45.776C171.448 46.032 170.84 46.16 170.222 46.16C169.688 46.16 169.203 46.048 168.766 45.824C168.339 45.5893 168.003 45.28 167.758 44.896C167.523 44.5013 167.406 44.0693 167.406 43.6ZM172.99 44.24C173.107 44.0907 173.198 43.9467 173.262 43.808C173.326 43.6693 173.358 43.5467 173.358 43.44V42.224C172.995 42.0853 172.616 41.9787 172.222 41.904C171.838 41.8293 171.448 41.792 171.054 41.792C170.275 41.792 169.646 41.9467 169.166 42.256C168.686 42.5653 168.446 42.9867 168.446 43.52C168.446 43.8293 168.526 44.1227 168.686 44.4C168.846 44.6667 169.08 44.8907 169.39 45.072C169.699 45.2427 170.062 45.328 170.478 45.328C171 45.328 171.486 45.2267 171.934 45.024C172.392 44.8213 172.744 44.56 172.99 44.24ZM176.86 46V37.68H177.948V44.528L183.02 37.664H183.996V46H182.908V39.264L177.916 46H176.86ZM180.444 36.608C179.719 36.608 179.159 36.4373 178.764 36.096C178.37 35.7547 178.172 35.3227 178.172 34.8H178.972C178.972 35.12 179.09 35.3867 179.324 35.6C179.57 35.8133 179.943 35.92 180.444 35.92C180.935 35.92 181.292 35.8187 181.516 35.616C181.751 35.4133 181.884 35.1413 181.916 34.8H182.7C182.7 35.3227 182.503 35.7547 182.108 36.096C181.714 36.4373 181.159 36.608 180.444 36.608ZM186.44 46V37.664H187.528V41.248H192.296V37.664H193.384V46H192.296V42.224H187.528V46H186.44ZM199.464 46.16C198.867 46.16 198.312 46.048 197.8 45.824C197.288 45.5893 196.846 45.2747 196.472 44.88C196.099 44.4747 195.806 44.0107 195.592 43.488C195.39 42.9653 195.288 42.4053 195.288 41.808C195.288 41.0293 195.464 40.3147 195.816 39.664C196.179 39.0133 196.675 38.496 197.304 38.112C197.934 37.7173 198.648 37.52 199.448 37.52C200.27 37.52 200.984 37.7173 201.592 38.112C202.211 38.5067 202.696 39.0293 203.048 39.68C203.4 40.32 203.576 41.024 203.576 41.792C203.576 41.8773 203.576 41.9627 203.576 42.048C203.576 42.1227 203.571 42.1813 203.56 42.224H196.424C196.478 42.8213 196.643 43.3547 196.92 43.824C197.208 44.2827 197.576 44.6507 198.024 44.928C198.483 45.1947 198.979 45.328 199.512 45.328C200.056 45.328 200.568 45.1893 201.048 44.912C201.539 44.6347 201.88 44.272 202.072 43.824L203.016 44.08C202.846 44.4747 202.584 44.832 202.232 45.152C201.88 45.472 201.464 45.7227 200.984 45.904C200.515 46.0747 200.008 46.16 199.464 46.16ZM196.392 41.44H202.552C202.51 40.832 202.344 40.2987 202.056 39.84C201.779 39.3813 201.411 39.024 200.952 38.768C200.504 38.5013 200.008 38.368 199.464 38.368C198.92 38.368 198.424 38.5013 197.976 38.768C197.528 39.024 197.16 39.3867 196.872 39.856C196.595 40.3147 196.435 40.8427 196.392 41.44ZM209.591 46.16C208.898 46.16 208.274 45.9787 207.719 45.616C207.175 45.2533 206.743 44.8053 206.423 44.272V49.408H205.335V37.664H206.311V39.28C206.642 38.7573 207.084 38.336 207.639 38.016C208.194 37.6853 208.786 37.52 209.415 37.52C209.991 37.52 210.519 37.6427 210.999 37.888C211.479 38.1227 211.895 38.4427 212.247 38.848C212.599 39.2533 212.871 39.7173 213.063 40.24C213.266 40.752 213.367 41.2853 213.367 41.84C213.367 42.6187 213.207 43.3387 212.887 44C212.578 44.6507 212.14 45.1733 211.575 45.568C211.01 45.9627 210.348 46.16 209.591 46.16ZM209.287 45.2C209.746 45.2 210.156 45.1093 210.519 44.928C210.882 44.736 211.191 44.48 211.447 44.16C211.714 43.84 211.916 43.4827 212.055 43.088C212.194 42.6827 212.263 42.2667 212.263 41.84C212.263 41.392 212.183 40.9653 212.023 40.56C211.874 40.1547 211.655 39.7973 211.367 39.488C211.079 39.1787 210.748 38.9333 210.375 38.752C210.002 38.5707 209.596 38.48 209.159 38.48C208.882 38.48 208.594 38.5333 208.295 38.64C207.996 38.7467 207.708 38.9013 207.431 39.104C207.164 39.296 206.94 39.5147 206.759 39.76C206.578 40.0053 206.466 40.2667 206.423 40.544V43.104C206.594 43.4987 206.823 43.856 207.111 44.176C207.399 44.4853 207.73 44.736 208.103 44.928C208.487 45.1093 208.882 45.2 209.287 45.2ZM214.618 43.6C214.618 43.0773 214.767 42.6293 215.066 42.256C215.365 41.872 215.775 41.5787 216.298 41.376C216.831 41.1627 217.445 41.056 218.138 41.056C218.543 41.056 218.965 41.088 219.402 41.152C219.839 41.216 220.229 41.312 220.57 41.44V40.736C220.57 40.032 220.362 39.472 219.946 39.056C219.53 38.64 218.954 38.432 218.218 38.432C217.77 38.432 217.327 38.5173 216.89 38.688C216.463 38.848 216.015 39.088 215.546 39.408L215.13 38.64C215.674 38.2667 216.207 37.9893 216.73 37.808C217.253 37.616 217.786 37.52 218.33 37.52C219.354 37.52 220.165 37.8133 220.762 38.4C221.359 38.9867 221.658 39.7973 221.658 40.832V44.688C221.658 44.8373 221.69 44.9493 221.754 45.024C221.818 45.088 221.919 45.1253 222.058 45.136V46C221.941 46.0107 221.839 46.0213 221.754 46.032C221.669 46.0427 221.605 46.0427 221.562 46.032C221.295 46.0213 221.093 45.936 220.954 45.776C220.815 45.616 220.741 45.4453 220.73 45.264L220.714 44.656C220.341 45.136 219.855 45.5093 219.258 45.776C218.661 46.032 218.053 46.16 217.434 46.16C216.901 46.16 216.415 46.048 215.978 45.824C215.551 45.5893 215.215 45.28 214.97 44.896C214.735 44.5013 214.618 44.0693 214.618 43.6ZM220.202 44.24C220.319 44.0907 220.41 43.9467 220.474 43.808C220.538 43.6693 220.57 43.5467 220.57 43.44V42.224C220.207 42.0853 219.829 41.9787 219.434 41.904C219.05 41.8293 218.661 41.792 218.266 41.792C217.487 41.792 216.858 41.9467 216.378 42.256C215.898 42.5653 215.658 42.9867 215.658 43.52C215.658 43.8293 215.738 44.1227 215.898 44.4C216.058 44.6667 216.293 44.8907 216.602 45.072C216.911 45.2427 217.274 45.328 217.69 45.328C218.213 45.328 218.698 45.2267 219.146 45.024C219.605 44.8213 219.957 44.56 220.202 44.24Z" fill="black"/>
<path d="M219.5 15.634C220.167 16.0189 220.167 16.9811 219.5 17.366L205.25 25.5933C204.583 25.9782 203.75 25.497 203.75 24.7272L203.75 8.27276C203.75 7.50296 204.583 7.02183 205.25 7.40673L219.5 15.634Z" fill="#D62828"/>
<rect x="146" y="7" width="19" height="19" rx="2" fill="#14213D"/>
<circle cx="184.5" cy="16.5" r="9.5" fill="#FFC700"/>
<path d="M9.632 11.882L4.016 25.09C3.89467 25.4193 3.704 25.6793 3.444 25.87C3.20133 26.0433 2.93267 26.13 2.638 26.13C2.17 26.13 1.82333 26 1.598 25.74C1.37267 25.48 1.26 25.1593 1.26 24.778C1.26 24.622 1.286 24.4573 1.338 24.284L7.812 8.736C7.95067 8.38933 8.15867 8.12067 8.436 7.93C8.73067 7.73933 9.04267 7.66133 9.372 7.696C9.684 7.696 9.97 7.79133 10.23 7.982C10.5073 8.15533 10.7067 8.40667 10.828 8.736L17.224 23.972C17.3107 24.1973 17.354 24.4053 17.354 24.596C17.354 25.064 17.198 25.4367 16.886 25.714C16.5913 25.9913 16.262 26.13 15.898 26.13C15.586 26.13 15.3 26.0347 15.04 25.844C14.7973 25.6533 14.6067 25.3933 14.468 25.064L8.878 12.038L9.632 11.882ZM4.822 21.918L6.252 18.928H13.272L13.766 21.918H4.822ZM21.4275 26C20.9421 26 20.5088 25.8527 20.1275 25.558C19.7461 25.246 19.5555 24.8647 19.5555 24.414V9.386C19.5555 8.93533 19.7028 8.56267 19.9975 8.268C20.3095 7.956 20.6908 7.8 21.1415 7.8H28.6295C29.5308 7.8 30.3715 8.04267 31.1515 8.528C31.9488 8.996 32.5901 9.65467 33.0755 10.504C33.5608 11.336 33.8035 12.298 33.8035 13.39C33.8035 14.0487 33.6648 14.69 33.3875 15.314C33.1275 15.938 32.7635 16.5013 32.2955 17.004C31.8448 17.5067 31.3335 17.8967 30.7615 18.174L30.7875 17.576C31.2728 17.836 31.6715 18.148 31.9835 18.512C32.3128 18.8587 32.5641 19.24 32.7375 19.656C32.9281 20.0547 33.0408 20.488 33.0755 20.956C33.1448 21.3893 33.1881 21.7707 33.2055 22.1C33.2401 22.4293 33.2921 22.7067 33.3615 22.932C33.4481 23.1573 33.6041 23.3307 33.8295 23.452C34.2108 23.6773 34.4448 24.0067 34.5315 24.44C34.6355 24.856 34.5401 25.2287 34.2455 25.558C34.0548 25.7833 33.8121 25.9307 33.5175 26C33.2228 26.052 32.9281 26.052 32.6335 26C32.3388 25.9307 32.0961 25.844 31.9055 25.74C31.6108 25.5667 31.3161 25.3153 31.0215 24.986C30.7268 24.6393 30.4841 24.18 30.2935 23.608C30.1201 23.036 30.0335 22.2993 30.0335 21.398C30.0335 21.1033 29.9815 20.8347 29.8775 20.592C29.7735 20.332 29.6261 20.1153 29.4355 19.942C29.2448 19.7513 29.0021 19.6127 28.7075 19.526C28.4128 19.422 28.0661 19.37 27.6675 19.37H22.4155L22.8055 18.772V24.414C22.8055 24.8647 22.6841 25.246 22.4415 25.558C22.1988 25.8527 21.8608 26 21.4275 26ZM22.4415 16.692H28.4995C28.8115 16.692 29.1148 16.5533 29.4095 16.276C29.7041 15.9813 29.9468 15.5913 30.1375 15.106C30.3281 14.6033 30.4235 14.0573 30.4235 13.468C30.4235 12.7053 30.2155 12.0727 29.7995 11.57C29.4008 11.05 28.9675 10.79 28.4995 10.79H22.4935L22.8055 9.958V17.316L22.4415 16.692ZM43.1862 26C42.7009 26 42.3022 25.8527 41.9902 25.558C41.6782 25.246 41.5222 24.8647 41.5222 24.414V9.334H44.9022V24.414C44.9022 24.8647 44.7376 25.246 44.4082 25.558C44.0962 25.8527 43.6889 26 43.1862 26ZM37.4402 10.79C36.9896 10.79 36.6082 10.6513 36.2962 10.374C36.0016 10.0967 35.8542 9.73267 35.8542 9.282C35.8542 8.83133 36.0016 8.476 36.2962 8.216C36.6082 7.93867 36.9896 7.8 37.4402 7.8H48.9842C49.4349 7.8 49.8076 7.93867 50.1022 8.216C50.4142 8.49333 50.5702 8.85733 50.5702 9.308C50.5702 9.75867 50.4142 10.1227 50.1022 10.4C49.8076 10.66 49.4349 10.79 48.9842 10.79H37.4402ZM54.2356 19.578C53.7849 19.578 53.4036 19.4307 53.0916 19.136C52.7969 18.8413 52.6496 18.4687 52.6496 18.018C52.6496 17.5673 52.7969 17.2033 53.0916 16.926C53.4036 16.6313 53.7849 16.484 54.2356 16.484H58.7596C59.2103 16.484 59.5829 16.64 59.8776 16.952C60.1896 17.2467 60.3456 17.6193 60.3456 18.07C60.3456 18.5033 60.1896 18.8673 59.8776 19.162C59.5829 19.4393 59.2103 19.578 58.7596 19.578H54.2356ZM71.1222 7.8C72.0235 7.8 72.8642 8.06 73.6442 8.58C74.4415 9.1 75.0829 9.802 75.5682 10.686C76.0535 11.57 76.2962 12.558 76.2962 13.65C76.2962 14.7247 76.0535 15.704 75.5682 16.588C75.0829 17.472 74.4415 18.1827 73.6442 18.72C72.8642 19.24 72.0235 19.5 71.1222 19.5H66.3382L66.5982 19.032V24.414C66.5982 24.8647 66.4595 25.246 66.1822 25.558C65.9049 25.8527 65.5409 26 65.0902 26C64.6569 26 64.3015 25.8527 64.0242 25.558C63.7469 25.246 63.6082 24.8647 63.6082 24.414V9.386C63.6082 8.93533 63.7555 8.56267 64.0502 8.268C64.3622 7.956 64.7435 7.8 65.1942 7.8H71.1222ZM71.1222 16.536C71.4515 16.536 71.7722 16.3973 72.0842 16.12C72.3962 15.8427 72.6562 15.4873 72.8642 15.054C73.0722 14.6033 73.1762 14.1353 73.1762 13.65C73.1762 13.1473 73.0722 12.6793 72.8642 12.246C72.6562 11.8127 72.3962 11.466 72.0842 11.206C71.7722 10.9287 71.4515 10.79 71.1222 10.79H66.2862L66.5982 10.322V16.952L66.3122 16.536H71.1222ZM85.1242 26.26C83.9109 26.26 82.8189 26.1127 81.8482 25.818C80.8776 25.506 79.9502 24.9687 79.0662 24.206C78.8409 24.0153 78.6676 23.7987 78.5462 23.556C78.4249 23.3133 78.3642 23.0707 78.3642 22.828C78.3642 22.4293 78.5029 22.0827 78.7802 21.788C79.0749 21.476 79.4389 21.32 79.8722 21.32C80.2016 21.32 80.4962 21.424 80.7562 21.632C81.4149 22.1693 82.0649 22.5767 82.7062 22.854C83.3649 23.1313 84.1709 23.27 85.1242 23.27C85.7656 23.27 86.3549 23.1747 86.8922 22.984C87.4296 22.776 87.8629 22.5073 88.1922 22.178C88.5216 21.8313 88.6862 21.4413 88.6862 21.008C88.6862 20.488 88.5302 20.046 88.2182 19.682C87.9062 19.318 87.4296 19.0147 86.7882 18.772C86.1469 18.512 85.3322 18.3127 84.3442 18.174C83.4082 18.0353 82.5849 17.8273 81.8742 17.55C81.1636 17.2553 80.5656 16.8913 80.0802 16.458C79.6122 16.0073 79.2569 15.4873 79.0142 14.898C78.7716 14.2913 78.6502 13.6153 78.6502 12.87C78.6502 11.7433 78.9362 10.7813 79.5082 9.984C80.0976 9.18667 80.8862 8.58 81.8742 8.164C82.8622 7.748 83.9542 7.54 85.1502 7.54C86.2769 7.54 87.3169 7.71333 88.2702 8.06C89.2409 8.38933 90.0296 8.814 90.6362 9.334C91.1389 9.73267 91.3902 10.192 91.3902 10.712C91.3902 11.0933 91.2429 11.44 90.9482 11.752C90.6536 12.064 90.3069 12.22 89.9082 12.22C89.6482 12.22 89.4142 12.142 89.2062 11.986C88.9289 11.7433 88.5562 11.518 88.0882 11.31C87.6202 11.0847 87.1262 10.9027 86.6062 10.764C86.0862 10.608 85.6009 10.53 85.1502 10.53C84.4049 10.53 83.7722 10.6253 83.2522 10.816C82.7496 11.0067 82.3682 11.2667 82.1082 11.596C81.8482 11.9253 81.7182 12.3067 81.7182 12.74C81.7182 13.26 81.8656 13.6933 82.1602 14.04C82.4722 14.3693 82.9142 14.638 83.4862 14.846C84.0582 15.0367 84.7429 15.21 85.5402 15.366C86.5802 15.5567 87.4902 15.782 88.2702 16.042C89.0676 16.302 89.7262 16.64 90.2462 17.056C90.7662 17.4547 91.1562 17.966 91.4162 18.59C91.6762 19.1967 91.8062 19.942 91.8062 20.826C91.8062 21.9527 91.4942 22.9233 90.8702 23.738C90.2462 24.5527 89.4229 25.1767 88.4002 25.61C87.3949 26.0433 86.3029 26.26 85.1242 26.26ZM95.9059 25.974C95.4032 25.974 95.0132 25.844 94.7359 25.584C94.4759 25.3067 94.3459 24.9167 94.3459 24.414V23.972C94.3459 23.4693 94.4759 23.088 94.7359 22.828C95.0132 22.5507 95.4032 22.412 95.9059 22.412H96.2439C96.7466 22.412 97.1279 22.5507 97.3879 22.828C97.6652 23.088 97.8039 23.4693 97.8039 23.972V24.414C97.8039 24.9167 97.6652 25.3067 97.3879 25.584C97.1279 25.844 96.7466 25.974 96.2439 25.974H95.9059ZM103.134 26C102.649 26 102.216 25.8527 101.835 25.558C101.453 25.246 101.263 24.8647 101.263 24.414V9.386C101.263 8.93533 101.41 8.56267 101.705 8.268C102.017 7.956 102.398 7.8 102.849 7.8H110.337C111.238 7.8 112.079 8.04267 112.859 8.528C113.656 8.996 114.297 9.65467 114.783 10.504C115.268 11.336 115.511 12.298 115.511 13.39C115.511 14.0487 115.372 14.69 115.095 15.314C114.835 15.938 114.471 16.5013 114.002 17.004C113.552 17.5067 113.041 17.8967 112.469 18.174L112.495 17.576C112.98 17.836 113.379 18.148 113.691 18.512C114.02 18.8587 114.271 19.24 114.445 19.656C114.635 20.0547 114.748 20.488 114.783 20.956C114.852 21.3893 114.895 21.7707 114.913 22.1C114.947 22.4293 114.999 22.7067 115.069 22.932C115.155 23.1573 115.311 23.3307 115.537 23.452C115.918 23.6773 116.152 24.0067 116.239 24.44C116.343 24.856 116.247 25.2287 115.953 25.558C115.762 25.7833 115.519 25.9307 115.225 26C114.93 26.052 114.635 26.052 114.341 26C114.046 25.9307 113.803 25.844 113.613 25.74C113.318 25.5667 113.023 25.3153 112.729 24.986C112.434 24.6393 112.191 24.18 112.001 23.608C111.827 23.036 111.741 22.2993 111.741 21.398C111.741 21.1033 111.689 20.8347 111.585 20.592C111.481 20.332 111.333 20.1153 111.143 19.942C110.952 19.7513 110.709 19.6127 110.415 19.526C110.12 19.422 109.773 19.37 109.375 19.37H104.123L104.513 18.772V24.414C104.513 24.8647 104.391 25.246 104.149 25.558C103.906 25.8527 103.568 26 103.134 26ZM104.149 16.692H110.207C110.519 16.692 110.822 16.5533 111.117 16.276C111.411 15.9813 111.654 15.5913 111.845 15.106C112.035 14.6033 112.131 14.0573 112.131 13.468C112.131 12.7053 111.923 12.0727 111.507 11.57C111.108 11.05 110.675 10.79 110.207 10.79H104.201L104.513 9.958V17.316L104.149 16.692ZM131.907 7.774C132.358 7.774 132.722 7.93 132.999 8.242C133.276 8.53667 133.415 8.90933 133.415 9.36V18.772C133.415 20.2107 133.103 21.4847 132.479 22.594C131.872 23.7033 131.032 24.57 129.957 25.194C128.882 25.818 127.634 26.13 126.213 26.13C124.792 26.13 123.535 25.818 122.443 25.194C121.368 24.57 120.519 23.7033 119.895 22.594C119.288 21.4847 118.985 20.2107 118.985 18.772V9.36C118.985 8.90933 119.141 8.53667 119.453 8.242C119.765 7.93 120.164 7.774 120.649 7.774C121.048 7.774 121.403 7.93 121.715 8.242C122.044 8.53667 122.209 8.90933 122.209 9.36V18.772C122.209 19.6387 122.391 20.3927 122.755 21.034C123.136 21.658 123.63 22.1433 124.237 22.49C124.861 22.8367 125.52 23.01 126.213 23.01C126.958 23.01 127.652 22.8367 128.293 22.49C128.934 22.1433 129.454 21.658 129.853 21.034C130.252 20.3927 130.451 19.6387 130.451 18.772V9.36C130.451 8.90933 130.581 8.53667 130.841 8.242C131.101 7.93 131.456 7.774 131.907 7.774Z" fill="#3A0CA3"/>
</svg>
