<svg width="46" height="46" viewBox="0 0 46 46" fill="none" xmlns="http://www.w3.org/2000/svg">
<path d="M45.0385 23.495C45.0385 35.9214 34.9649 45.995 22.5384 45.995C10.112 45.995 0.0383301 35.9214 0.0383301 23.495C0.0383301 11.0686 10.112 0.994995 22.5384 0.994995C34.9649 0.994995 45.0385 11.0686 45.0385 23.495Z" fill="#4C77A6"/>
<path d="M29.4518 25.4291C30.1407 26.1225 30.8679 26.7748 31.4858 27.5381C31.7587 27.8773 32.0172 28.2273 32.2149 28.6209C32.495 29.1805 32.2413 29.7962 31.7545 29.8296L28.7288 29.8282C27.9484 29.895 27.3259 29.5711 26.8024 29.0211C26.3835 28.5813 25.9955 28.1132 25.5927 27.6585C25.4276 27.4727 25.2547 27.2978 25.0482 27.1596C24.6352 26.8832 24.2766 26.9678 24.0406 27.4119C23.8002 27.8636 23.7457 28.3637 23.7221 28.867C23.6896 29.6015 23.4743 29.7945 22.7586 29.8282C21.2291 29.9025 19.7775 29.664 18.429 28.8686C17.2401 28.1675 16.3182 27.1777 15.5158 26.0571C13.9535 23.875 12.757 21.4773 11.6817 19.0125C11.4397 18.4571 11.6167 18.159 12.2111 18.1485C13.1982 18.1287 14.1851 18.1301 15.1734 18.1471C15.5746 18.1531 15.8401 18.3903 15.995 18.781C16.5291 20.1345 17.1825 21.4223 18.0028 22.616C18.2212 22.9338 18.444 23.2516 18.7611 23.4753C19.112 23.723 19.3792 23.6409 19.5442 23.238C19.649 22.9825 19.6948 22.7073 19.7185 22.4337C19.7967 21.4923 19.807 20.5526 19.6698 19.6145C19.5856 19.0291 19.2657 18.6501 18.699 18.5393C18.4098 18.4828 18.4528 18.3719 18.5929 18.2017C18.8361 17.9083 19.0648 17.7256 19.5208 17.7256H22.9403C23.4787 17.8351 23.5982 18.0844 23.6719 18.6428L23.6748 22.5581C23.669 22.7743 23.7796 23.4157 24.1573 23.5588C24.4596 23.6606 24.6589 23.4113 24.8402 23.2138C25.659 22.318 26.2433 21.2595 26.7653 20.1634C26.997 19.6814 27.1962 19.1809 27.3892 18.6807C27.5323 18.3096 27.7567 18.127 28.1623 18.1351L31.4534 18.1381C31.551 18.1381 31.6497 18.1396 31.7442 18.1563C32.2988 18.2537 32.4508 18.4996 32.2795 19.0578C32.0096 19.9336 31.4845 20.6635 30.9711 21.3967C30.4222 22.1795 29.8352 22.9356 29.2909 23.723C28.7909 24.4421 28.8306 24.8046 29.4518 25.4291Z" fill="white"/>
</svg>
