<svg width="50" height="50" viewBox="0 0 50 50" fill="none" xmlns="http://www.w3.org/2000/svg">
<g clip-path="url(#clip0_267_5044)">
<path d="M25 50C38.8071 50 50 38.8071 50 25C50 11.1929 38.8071 0 25 0C11.1929 0 0 11.1929 0 25C0 38.8071 11.1929 50 25 50Z" fill="#4D76A1"/>
<path fill-rule="evenodd" clip-rule="evenodd" d="M24.057 35.9647H26.0192C26.0192 35.9647 26.6119 35.8997 26.9145 35.5735C27.1931 35.274 27.1842 34.7116 27.1842 34.7116C27.1842 34.7116 27.1458 32.0787 28.3678 31.691C29.5724 31.309 31.1192 34.2356 32.7588 35.3609C33.9986 36.2125 34.9407 36.0258 34.9407 36.0258L39.3245 35.9647C39.3245 35.9647 41.6178 35.8235 40.5304 34.0204C40.4413 33.8729 39.8972 32.6865 37.271 30.2488C34.5222 27.6975 34.8903 28.1102 38.2015 23.6969C40.218 21.0092 41.0242 19.3683 40.7724 18.6655C40.5322 17.9961 39.0491 18.1731 39.0491 18.1731L34.1131 18.2038C34.1131 18.2038 33.7472 18.1539 33.4758 18.3161C33.2107 18.4752 33.04 18.846 33.04 18.846C33.04 18.846 32.2588 20.9258 31.2168 22.6946C29.0189 26.4269 28.1401 26.6239 27.7809 26.3922C26.9453 25.8521 27.1538 24.2223 27.1538 23.0645C27.1538 19.4476 27.7024 17.9396 26.0856 17.5492C25.5491 17.4195 25.1542 17.3339 23.7821 17.3201C22.0209 17.3018 20.5302 17.3254 19.6861 17.739C19.1246 18.014 18.6914 18.6267 18.9552 18.6619C19.2815 18.7056 20.0203 18.8612 20.4121 19.3946C20.9179 20.0827 20.9001 21.6282 20.9001 21.6282C20.9001 21.6282 21.1906 25.8859 20.2213 26.4149C19.556 26.7777 18.6433 26.037 16.6838 22.651C15.6797 20.9165 14.9217 18.9993 14.9217 18.9993C14.9217 18.9993 14.7755 18.641 14.5148 18.4494C14.1984 18.2172 13.7563 18.1432 13.7563 18.1432L9.06586 18.174C9.06586 18.174 8.36173 18.1936 8.10326 18.4997C7.8733 18.772 8.08499 19.3353 8.08499 19.3353C8.08499 19.3353 11.7571 27.9266 15.915 32.256C19.7276 36.2254 24.057 35.9647 24.057 35.9647Z" fill="white"/>
</g>
<defs>
<clipPath id="clip0_267_5044">
<rect width="50" height="50" fill="white"/>
</clipPath>
</defs>
</svg>
