<svg width="50" height="50" viewBox="0 0 50 50" fill="none" xmlns="http://www.w3.org/2000/svg">
<g clip-path="url(#clip0_267_5049)">
<path d="M25 0C38.75 0 50 11.25 50 25C50 38.75 38.75 50 25 50C11.25 50 0 38.7498 0 25C0 11.2502 11.25 0 25 0Z" fill="#DD4B39"/>
<path d="M18.4183 32.4424C14.6683 28.6924 14.6683 22.1299 18.5745 18.3801C21.387 15.5675 25.4494 14.9426 29.0432 16.3488L30.4494 17.1301L32.0119 18.2239L29.5119 20.7239L28.5745 20.099C26.387 18.6928 23.2619 19.0051 21.2308 21.0364C18.887 23.3802 18.7308 27.599 21.2308 30.099C23.5746 32.599 27.7934 32.599 29.9808 30.099C30.6057 29.474 31.2308 28.5364 31.387 27.599V27.2864H25.7621V24.1615H34.6683L34.8245 24.9428V27.1302C34.6683 29.1615 33.887 31.1928 32.4806 32.5989C28.7308 36.1924 22.1683 36.1924 18.4183 32.4424Z" fill="white"/>
</g>
<defs>
<clipPath id="clip0_267_5049">
<rect width="50" height="50" fill="white"/>
</clipPath>
</defs>
</svg>
