<svg width="30" height="30" viewBox="0 0 30 30" fill="none" xmlns="http://www.w3.org/2000/svg">
<path d="M30 3.92468C30 1.7571 28.2429 0 26.0753 0H3.92468C1.7571 0 0 1.7571 0 3.92468V26.0752C0 28.2429 1.7571 30 3.92468 30H26.0752C28.2429 30 30 28.2429 30 26.0753V3.92468ZM6.73403 24.4971C6.08403 24.6715 5.48919 24.0766 5.66355 23.4266L6.74145 19.4089L10.7516 23.419L6.73403 24.4971ZM24.0526 9.88597L12.1842 21.7545L8.19242 17.7627L20.0608 5.89435C20.6237 5.33145 21.5361 5.33145 22.099 5.89435L24.0526 7.8479C24.6153 8.41065 24.6153 9.32306 24.0526 9.88597Z" fill="#3A0CA3"/>
</svg>
