<svg width="32" height="32" viewBox="0 0 32 32" fill="none" xmlns="http://www.w3.org/2000/svg">
<g clip-path="url(#clip0_73_560)">
<path d="M16 32C24.8366 32 32 24.8366 32 16C32 7.16344 24.8366 0 16 0C7.16344 0 0 7.16344 0 16C0 24.8366 7.16344 32 16 32Z" fill="#039BE5"/>
<path d="M6.32168 14.6533L21.7484 8.7053C22.4644 8.44664 23.0897 8.87997 22.8577 9.96264L22.859 9.96131L20.2323 22.336C20.0377 23.2133 19.5163 23.4267 18.787 23.0133L14.787 20.0653L12.8577 21.924C12.6443 22.1373 12.4644 22.3173 12.051 22.3173L12.335 18.2466L19.7484 11.5493C20.071 11.2653 19.6763 11.1053 19.251 11.388L10.0897 17.156L6.14035 15.924C5.28302 15.652 5.26435 15.0666 6.32168 14.6533Z" fill="white"/>
</g>
<defs>
<clipPath id="clip0_73_560">
<rect width="32" height="32" fill="white"/>
</clipPath>
</defs>
</svg>
