<svg width="32" height="32" viewBox="0 0 32 32" fill="none" xmlns="http://www.w3.org/2000/svg">
<g clip-path="url(#clip0_52_1004)">
<path d="M16 32C24.8366 32 32 24.8366 32 16C32 7.16344 24.8366 0 16 0C7.16344 0 0 7.16344 0 16C0 24.8366 7.16344 32 16 32Z" fill="#4D76A1"/>
<path fill-rule="evenodd" clip-rule="evenodd" d="M15.3962 23.0174H16.652C16.652 23.0174 17.0313 22.9758 17.225 22.767C17.4032 22.5753 17.3975 22.2154 17.3975 22.2154C17.3975 22.2154 17.373 20.5303 18.1551 20.2822C18.926 20.0378 19.916 21.9108 20.9653 22.631C21.7588 23.176 22.3617 23.0565 22.3617 23.0565L25.1674 23.0174C25.1674 23.0174 26.6351 22.927 25.9392 21.773C25.8821 21.6786 25.5339 20.9194 23.8531 19.3593C22.0939 17.7264 22.3295 17.9905 24.4486 15.166C25.7392 13.4459 26.2552 12.3957 26.094 11.9459C25.9403 11.5175 24.9911 11.6308 24.9911 11.6308L21.8321 11.6504C21.8321 11.6504 21.5979 11.6185 21.4242 11.7223C21.2545 11.8241 21.1453 12.0614 21.1453 12.0614C21.1453 12.0614 20.6453 13.3925 19.9785 14.5246C18.5718 16.9132 18.0093 17.0393 17.7794 16.891C17.2447 16.5453 17.3781 15.5023 17.3781 14.7613C17.3781 12.4465 17.7292 11.4813 16.6945 11.2315C16.3511 11.1485 16.0984 11.0937 15.2202 11.0849C14.093 11.0732 13.139 11.0883 12.5988 11.353C12.2394 11.5289 11.9622 11.9211 12.131 11.9436C12.3398 11.9716 12.8127 12.0711 13.0634 12.4125C13.3871 12.8529 13.3757 13.842 13.3757 13.842C13.3757 13.842 13.5617 16.567 12.9413 16.9055C12.5155 17.1377 11.9314 16.6637 10.6773 14.4966C10.0347 13.3866 9.54956 12.1596 9.54956 12.1596C9.54956 12.1596 9.45601 11.9302 9.28916 11.8076C9.08666 11.659 8.80373 11.6117 8.80373 11.6117L5.80184 11.6313C5.80184 11.6313 5.3512 11.6439 5.18577 11.8398C5.0386 12.0141 5.17408 12.3746 5.17408 12.3746C5.17408 12.3746 7.52425 17.873 10.1853 20.6439C12.6253 23.1843 15.3962 23.0174 15.3962 23.0174Z" fill="white"/>
</g>
<defs>
<clipPath id="clip0_52_1004">
<rect width="32" height="32" fill="white"/>
</clipPath>
</defs>
</svg>
