<svg width="32" height="32" viewBox="0 0 32 32" fill="none" xmlns="http://www.w3.org/2000/svg">
<g clip-path="url(#clip0_52_989)">
<path d="M16 32C24.8366 32 32 24.8366 32 16C32 7.16344 24.8366 0 16 0C7.16344 0 0 7.16344 0 16C0 24.8366 7.16344 32 16 32Z" fill="#B0E1FF"/>
<path d="M25.6629 18.0335C25.8089 17.3579 25.8864 16.6568 25.8864 15.9376C25.8864 10.4783 21.4607 6.05259 16.0014 6.05259C15.2821 6.05259 14.581 6.13015 13.9054 6.27603C13.1192 5.85378 12.2204 5.61403 11.2654 5.61403C8.17942 5.61403 5.67773 8.11578 5.67773 11.2017C5.67773 12.1566 5.91748 13.0555 6.33973 13.8417C6.1938 14.5173 6.1163 15.2184 6.1163 15.9377C6.1163 21.397 10.542 25.8227 16.0013 25.8227C16.7205 25.8227 17.4216 25.7451 18.0972 25.5992C18.8834 26.0215 19.7823 26.2612 20.7372 26.2612C23.8232 26.2612 26.3249 23.7595 26.3249 20.6735C26.3249 19.7185 26.0852 18.8197 25.6629 18.0335Z" fill="#41A0D7"/>
<path d="M19.1155 12.9063C18.6982 12.4905 17.2878 11.7674 16.0078 11.7674C15.0194 11.7674 14.1692 12.0808 14.1692 13.0691C14.1692 14.0991 15.384 14.3578 16.8051 14.7125C18.8749 15.2705 20.5148 15.8847 20.5148 18.1294C20.5148 18.7477 20.3982 19.2765 20.165 19.7158C19.9316 20.1551 19.6172 20.5105 19.2213 20.7815C17.744 21.7932 15.4017 21.7065 13.6647 21.172C12.8187 20.9117 12.0592 20.543 11.3867 20.0656L12.3793 18.1293C12.5955 18.3455 13.5993 19.0322 14.9663 19.3822C15.9895 19.6447 18.1229 19.7825 18.1229 18.3572C18.1229 17.5251 17.2349 17.165 16.3656 16.909C14.0963 16.2428 11.8585 15.8902 11.8585 13.427C11.8585 11.0646 13.732 9.7986 16.0727 9.7986C16.8863 9.7986 17.6347 9.92622 18.3181 10.1809C19.0015 10.4358 19.5979 10.7369 20.108 11.0839L19.1155 12.9063Z" fill="white"/>
</g>
<defs>
<clipPath id="clip0_52_989">
<rect width="32" height="32" fill="white"/>
</clipPath>
</defs>
</svg>
