<svg width="32" height="32" viewBox="0 0 32 32" fill="none" xmlns="http://www.w3.org/2000/svg">
<g clip-path="url(#clip0_52_1009)">
<path d="M16 32C24.8366 32 32 24.8366 32 16C32 7.16344 24.8366 0 16 0C7.16344 0 0 7.16344 0 16C0 24.8366 7.16344 32 16 32Z" fill="#6AAF50"/>
<path d="M21.8484 18.7884C21.3364 18.441 20.6638 18.4427 20.1536 18.7928L19.4191 19.297C18.601 19.8585 17.513 19.828 16.7266 19.2228C15.9855 18.6523 15.2781 18.0407 14.6064 17.3926C13.9582 16.7208 13.3466 16.0135 12.7762 15.2723C12.171 14.486 12.1405 13.398 12.702 12.5798L13.2061 11.8453C13.5562 11.3352 13.558 10.6626 13.2106 10.1506L11.1081 7.05214C10.5273 6.19627 9.39676 5.90952 8.4797 6.38795L8.47914 6.3882C6.6267 7.3547 5.84951 9.58958 6.69826 11.4988C7.91995 14.2473 9.56033 16.7612 11.54 18.9628L13.0362 20.459C15.2378 22.4386 17.7518 24.079 20.5001 25.3007C22.4095 26.1495 24.6443 25.3723 25.6108 23.5198L25.611 23.5193C26.0895 22.6023 25.8028 21.4717 24.9468 20.8909L21.8484 18.7884Z" fill="white"/>
</g>
<defs>
<clipPath id="clip0_52_1009">
<rect width="32" height="32" fill="white"/>
</clipPath>
</defs>
</svg>
