<svg width="32" height="32" viewBox="0 0 32 32" fill="none" xmlns="http://www.w3.org/2000/svg">
<g clip-path="url(#clip0_52_993)">
<path d="M30.1175 21.2124C26.2549 29.3124 20.3112 31.0625 15.9987 31.0625C11.1424 31.0625 6.56739 28.6375 3.75489 24.6812C0.923767 20.6875 0.248642 15.625 1.87989 10.7874L2.17995 10.1687C4.46739 4.71244 10.0175 0.9375 15.9987 0.9375C20.855 0.9375 25.43 3.3625 28.2425 7.31875C31.0736 11.3125 31.7488 16.375 30.1175 21.2124Z" fill="#65B1FC"/>
<path d="M30.1188 21.2124C26.2562 29.3124 20.3125 31.0625 16 31.0625V0.9375C20.8563 0.9375 25.4313 3.3625 28.2438 7.31875C31.0749 11.3125 31.7501 16.375 30.1188 21.2124Z" fill="#65B1FC"/>
<path d="M29.125 9.4375H2.875C1.31869 9.4375 0 10.6937 0 12.25V19.75C0 21.3062 1.31869 22.5625 2.875 22.5625H29.125C30.6813 22.5625 32 21.3062 32 19.75V12.25C32 10.6937 30.6813 9.4375 29.125 9.4375Z" fill="#0053BF"/>
<path d="M32 12.25V19.75C32 21.3062 30.6813 22.5625 29.125 22.5625H16V9.4375H29.125C30.6813 9.4375 32 10.6937 32 12.25Z" fill="#0053BF"/>
<path d="M20.5949 14.5374L18.7199 18.2874C18.5512 18.6062 18.2324 18.8125 17.8762 18.8125C17.5199 18.8125 17.2012 18.6062 17.0324 18.2874L16.0012 16.225L14.9699 18.2874C14.6513 18.925 13.6011 18.925 13.2824 18.2874L11.4074 14.5374C11.1824 14.0874 11.3699 13.525 11.8387 13.2812C12.2887 13.0562 12.8511 13.2437 13.0949 13.7124L14.1262 15.775L15.1574 13.7124C15.3263 13.3937 15.6637 13.2249 16.0012 13.2249C16.3386 13.2249 16.6762 13.3937 16.8449 13.7124L17.8762 15.775L18.9074 13.7124C19.1512 13.2437 19.7137 13.0562 20.1636 13.2812C20.6324 13.525 20.8199 14.0874 20.5949 14.5374Z" fill="#E1F1FA"/>
<path d="M27.2513 18.8125C26.8961 18.8125 26.572 18.612 26.4127 18.2943L25.3763 16.2215L24.3399 18.2943C24.0213 18.9297 22.9813 18.9297 22.6627 18.2943L20.8664 14.7009C20.7502 14.558 20.675 14.3814 20.6622 14.1872C20.6293 13.6709 20.9927 13.2269 21.509 13.193C21.9009 13.1839 22.2964 13.3688 22.4649 13.7057L23.5013 15.7784L24.5377 13.7057C24.8563 13.0703 25.8963 13.0703 26.2149 13.7057L27.2513 15.7784L28.2877 13.7057C28.5202 13.2415 29.0832 13.0575 29.5456 13.2864C30.0089 13.518 30.1966 14.081 29.9649 14.5443L28.0899 18.2943C27.9306 18.612 27.6066 18.8125 27.2513 18.8125Z" fill="#E1F1FA"/>
<path d="M10.4358 13.1893C10.0669 13.1856 9.70523 13.3687 9.53673 13.7057L8.50035 15.7784L7.46398 13.7057C7.12629 13.0326 6.12073 13.0377 5.78673 13.7057L4.75035 15.7784L3.71398 13.7057C3.48142 13.2415 2.91748 13.0575 2.45604 13.2864C1.99279 13.518 1.8051 14.081 2.03673 14.5443L3.91173 18.2943C4.07104 18.612 4.3951 18.8125 4.75035 18.8125C5.1056 18.8125 5.42967 18.612 5.58898 18.2943L6.62535 16.2215L7.66173 18.2943C7.82104 18.612 8.1451 18.8125 8.50035 18.8125C8.8556 18.8125 9.17966 18.612 9.33898 18.2943L11.105 14.7622C11.2387 14.6102 11.3248 14.4097 11.3394 14.1872C11.3724 13.6709 10.9522 13.2232 10.4358 13.1893Z" fill="#E1F1FA"/>
</g>
<defs>
<clipPath id="clip0_52_993">
<rect width="32" height="32" fill="white"/>
</clipPath>
</defs>
</svg>
