<svg width="32" height="32" viewBox="0 0 32 32" fill="none" xmlns="http://www.w3.org/2000/svg">
<path d="M12.8749 24.8499C15.6915 24.8499 18.2802 23.869 20.3275 22.2365L28.7953 30.7043C29.0585 30.9675 29.4042 31.0998 29.7497 31.0998C30.0953 31.0998 30.441 30.9675 30.7042 30.7043C31.232 30.1765 31.232 29.3231 30.7042 28.7954L22.2364 20.3276C23.8689 18.2803 24.8498 15.6916 24.8498 12.875C24.8498 6.27232 19.4775 0.900076 12.8748 0.900076C6.27218 0.900076 0.9 6.27226 0.9 12.8749C0.9 19.4776 6.27224 24.8499 12.8749 24.8499ZM12.8749 22.1499C7.76016 22.1499 3.6 17.9897 3.6 12.8749C3.6 7.76019 7.76016 3.60002 12.8749 3.60002C17.9896 3.60002 22.1498 7.76019 22.1498 12.8749C22.1498 17.9897 17.9896 22.1499 12.8749 22.1499Z" fill="white" stroke="white" stroke-width="0.2"/>
</svg>
